<svg width="1534" height="1546" viewBox="0 0 1534 1546" fill="none" xmlns="http://www.w3.org/2000/svg">
<g clip-path="url(#clip0_425_10)">
<path d="M403.97 1337.25L429.035 1349.79C531.239 1410.6 648.083 1442.39 766.998 1441.73C1133.08 1440.89 1433.86 1139.29 1433.86 773.07C1433.86 596.086 1363.59 426.121 1238.64 300.831C1113.86 174.246 943.376 102.909 765.704 102.909C401.296 102.909 101.472 402.886 101.472 767.387C101.472 770.271 101.472 773.112 101.514 775.996C102.612 899.924 137.26 1021.24 201.776 1127.04L218.485 1152.12L151.645 1398.68L403.97 1337.25Z" fill="#00E676"/>
<path d="M1313.01 225.608C1170.76 80.4248 975.624 -1.02467 772.429 -0.0663451H771.134C352.67 -0.0650359 8.31415 344.42 8.31415 763.041C8.31415 765.004 8.35603 766.928 8.35603 768.893C9.93222 901.988 44.3745 1032.63 108.618 1149.19L0 1546.21L404.806 1441.73C516.634 1503.15 642.355 1534.8 769.923 1533.67C1189.93 1531.37 1534.25 1184.92 1534 764.712C1535 562.819 1455.42 368.658 1313.01 225.608ZM772.429 1404.12C659.35 1404.71 548.261 1374.36 451.176 1316.35L426.11 1303.82L185.065 1366.5L247.728 1128.29L231.019 1103.22C168.949 1002.96 136.064 887.366 136.063 769.435C136.063 421.65 422.142 135.463 769.799 135.463C1117.45 135.463 1403.53 421.65 1403.53 769.435C1403.53 988.42 1290.11 1192.44 1104.13 1308C1005.76 1371.03 891.335 1404.4 774.519 1404.12M1141.73 940.235L1095.77 919.34C1095.77 919.34 1028.93 890.085 987.156 869.19C982.979 869.19 978.801 865.012 974.623 865.012C964.323 865.266 954.259 868.142 945.38 873.369C936.482 878.593 941.203 877.548 882.717 944.413C878.749 952.229 870.602 957.119 861.83 956.952H857.651C851.371 955.9 845.551 952.988 840.942 948.594L820.054 940.235C775.235 921.253 734.198 894.357 698.904 860.833C690.549 852.474 678.017 844.114 669.661 835.757C638.735 806.12 612.028 772.371 590.289 735.459L586.11 727.101C582.481 721.992 579.663 716.353 577.755 710.384C576.663 703.145 578.141 695.751 581.933 689.489C585.734 683.22 598.643 668.592 611.176 656.055C623.709 643.519 623.709 635.161 632.064 626.802C636.358 620.836 639.325 614.02 640.766 606.811C642.207 599.603 642.089 592.169 640.418 585.01C620.95 530.934 598.638 477.925 573.578 426.205C566.861 415.754 556.396 408.276 544.335 405.309H498.382C490.027 405.309 481.672 409.488 473.316 409.488L469.139 413.667C460.784 417.846 452.429 426.205 444.073 430.384C435.719 434.563 431.541 447.101 423.187 455.459C393.982 492.378 377.823 537.933 377.233 585.01C377.696 618.125 384.798 650.811 398.12 681.13L402.298 693.667C439.809 773.896 492.27 846.233 556.869 906.802L573.578 923.519C585.738 933.594 596.927 944.787 606.998 956.952C693.557 1032.3 796.366 1086.63 907.365 1115.76C919.897 1119.94 936.608 1119.94 949.14 1124.12H990.916C1012.75 1123.04 1034.11 1117.34 1053.58 1107.4C1063.81 1102.76 1073.59 1097.16 1082.82 1090.68L1091.18 1082.32C1099.53 1073.97 1107.89 1069.79 1116.24 1061.43C1124.41 1054.15 1131.45 1045.7 1137.13 1036.35C1145.15 1017.63 1150.79 997.991 1153.84 977.847V948.594C1150.09 945.219 1145.87 942.404 1141.31 940.235" fill="white"/>
</g>
<defs>
<clipPath id="clip0_425_10">
<rect width="1534" height="1546" fill="white"/>
</clipPath>
</defs>
</svg>
